<svg width="533" height="407" viewBox="0 0 533 407" fill="none" xmlns="http://www.w3.org/2000/svg">
<path fill-rule="evenodd" clip-rule="evenodd" d="M71.1486 22.3913C72.6007 22.3913 79.1347 24.5683 81.3127 25.294L92.9288 28.9224C127.051 39.8075 128.503 40.5332 159.721 57.2238C174.968 65.2062 187.31 77.5427 187.31 77.5427C188.762 78.2684 193.118 81.8968 199.652 82.6225L218.528 84.7995C220.706 85.5252 227.966 86.9765 230.87 88.4279L263.54 103.667C270.074 106.57 274.43 108.747 282.417 109.473C291.129 110.198 301.293 111.65 320.895 106.57L352.839 98.5874C355.017 97.8617 376.797 92.0563 376.797 92.0563C392.044 87.7022 408.016 89.8792 408.016 89.8792C413.824 90.6049 439.96 97.8617 439.96 97.8617C449.398 100.764 467.548 103.667 467.548 103.667C484.972 104.393 495.862 113.827 495.862 113.827C516.917 129.791 524.903 159.544 524.903 159.544C539.423 206.713 529.985 277.104 529.985 277.104C529.985 277.104 529.259 280.732 527.081 282.909C527.081 282.909 525.629 283.635 524.903 282.184C524.903 282.184 521.999 274.927 519.821 266.944C516.191 256.785 516.191 245.9 516.191 245.9C516.191 245.174 515.465 236.466 515.465 236.466C516.191 215.421 507.479 201.633 507.479 201.633C497.314 183.492 495.136 174.058 495.136 174.058C491.506 157.367 491.506 157.367 488.602 139.225C488.602 137.774 487.876 134.871 487.15 132.694C487.15 132.694 486.424 124.712 479.164 119.632C479.164 119.632 474.082 115.278 463.918 115.278L469 122.535C472.683 128.691 475.608 135.27 477.712 142.128C478.438 146.482 479.89 150.11 479.89 159.544C479.89 171.155 479.164 184.943 478.438 189.297C477.712 193.651 475.534 200.908 474.082 203.81C472.63 206.713 468.274 216.147 466.822 219.05C462.466 229.209 463.918 240.094 463.918 240.094C463.918 243.723 465.37 247.351 466.096 249.528C466.822 251.705 471.178 260.413 471.904 263.316C473.356 265.493 478.438 274.927 480.616 278.555L486.424 287.989C487.15 289.44 488.602 292.343 487.876 295.246C487.15 298.148 487.15 300.326 487.15 301.777C487.876 326.45 490.78 355.477 490.78 355.477V360.557C490.78 362.008 491.506 364.911 491.506 366.362C492.232 373.619 488.602 375.07 488.602 375.07C486.424 376.522 485.698 377.247 484.972 377.973C484.972 377.973 482.068 381.601 482.068 385.955C482.068 386.681 482.794 388.858 482.794 390.309V395.389C482.794 396.841 482.068 397.566 481.342 399.018C479.89 401.195 477.712 401.92 476.26 404.097C475.534 404.823 474.808 405.549 473.356 405.549C470.452 406.274 468.274 406.274 466.096 406.274C463.918 406.274 463.192 405.549 461.74 404.823C460.288 404.097 459.562 404.097 458.836 402.646C458.11 401.92 458.11 401.195 458.836 400.469C459.562 398.292 461.014 396.841 461.74 394.664C464.644 389.584 471.178 382.327 471.178 382.327C474.082 378.699 474.808 372.168 475.534 369.265C476.986 363.459 476.26 356.203 476.26 356.203C475.258 349.948 474.531 343.653 474.082 337.335V331.53C474.082 330.804 472.63 326.45 471.904 324.999C471.178 322.821 469.726 319.919 468.274 319.193C468.274 319.193 464.644 315.565 464.644 309.759C464.644 306.131 463.192 303.228 463.192 303.228C463.192 303.228 461.014 297.423 458.11 293.794C456.658 292.343 453.028 287.989 450.85 285.812C448.672 283.635 446.494 279.281 445.768 277.83C445.042 276.378 443.59 272.75 442.864 271.298C442.138 269.847 440.686 265.493 439.96 264.042C439.234 262.59 438.508 261.139 437.782 260.413C437.056 259.688 436.33 259.688 436.33 259.688V266.219C436.33 268.396 437.056 280.007 437.782 285.086C438.508 290.166 439.234 293.069 437.782 295.971C437.056 298.874 435.604 301.051 434.152 301.777C433.426 302.503 431.974 305.405 431.248 306.857C431.248 308.308 429.07 314.113 428.344 316.29C427.618 318.467 426.166 320.644 426.166 322.096C426.166 322.096 426.892 327.176 422.536 338.786C421.81 340.238 419.632 350.397 418.906 352.574L416.002 364.185C413.824 372.893 409.468 373.619 409.468 373.619C408.016 373.619 406.564 374.345 405.838 375.07C405.112 375.796 402.208 377.247 401.482 378.699C400.756 379.424 398.578 383.053 398.578 383.053C399.304 384.504 399.304 385.955 400.03 386.681C400.03 388.132 399.304 390.309 398.578 391.761C397.852 393.212 396.4 394.663 394.948 395.389C392.044 396.841 388.414 398.292 384.783 398.292C381.879 398.292 378.975 397.566 376.797 396.115C375.345 395.389 373.893 393.938 374.619 391.761C375.345 389.584 376.797 387.407 378.249 385.23C379.701 383.053 381.153 380.876 382.605 379.424C386.235 375.796 392.044 371.442 393.496 370.716C394.948 369.265 399.304 366.362 400.03 364.911C400.756 362.734 402.208 357.654 402.934 356.203C405.838 351.123 406.564 346.043 406.564 346.043C406.564 343.866 408.016 338.786 408.016 337.335C411.646 324.999 409.468 321.37 409.468 321.37C409.468 319.919 408.016 310.485 408.016 309.034C407.29 303.228 408.742 295.971 408.742 295.971C408.742 294.52 408.742 290.892 408.016 288.715C408.016 286.538 406.564 282.909 405.838 280.007C405.112 277.104 404.386 272.75 402.934 267.67C402.934 267.67 394.222 240.82 394.222 218.324C376.797 211.067 368.811 221.227 368.811 221.227C340.497 252.431 270.074 239.369 270.074 239.369C260.636 236.466 252.65 237.917 247.568 238.643C242.486 239.369 238.13 240.094 233.774 241.546C229.418 242.271 227.966 242.271 227.966 242.997C227.966 243.723 227.966 250.979 228.692 253.882C228.692 253.882 232.322 272.024 232.322 287.989C232.322 295.246 235.226 297.423 235.226 303.228C235.226 309.759 236.678 319.193 237.404 324.273C238.13 327.901 239.582 330.804 239.582 332.981C240.308 335.158 242.486 350.397 243.212 354.026C243.938 358.38 245.39 362.734 244.664 365.636C243.938 368.539 243.212 369.99 241.034 370.716C241.034 370.716 238.856 375.07 236.678 381.601C236.678 381.601 238.13 384.504 237.404 390.309C237.404 392.486 235.226 394.664 233.774 396.841C228.692 401.195 224.336 400.469 220.706 399.743C218.528 399.743 213.446 396.841 213.446 393.938C213.446 392.486 214.898 390.309 215.624 388.858C217.802 385.955 220.706 383.053 222.158 381.601C222.158 381.601 230.144 369.99 230.87 363.459C230.87 361.282 230.87 356.203 230.144 354.026C229.418 351.123 227.966 346.043 227.24 341.689C226.514 337.335 225.062 332.981 224.336 331.53C223.61 330.078 218.528 319.193 217.802 317.742C217.076 316.29 214.898 312.662 214.172 311.211C213.446 309.034 212.72 306.131 211.994 303.228C211.994 303.228 209.09 312.662 208.364 323.547C207.638 330.078 208.364 343.866 208.364 343.866C208.364 344.592 209.816 354.026 209.816 356.203C210.542 362.008 211.268 372.168 211.268 372.168C211.268 372.893 211.268 377.247 210.542 378.699C209.816 380.15 208.364 382.327 206.186 383.053C204.734 383.778 202.556 383.778 201.83 384.504C201.104 385.23 199.652 388.132 199.652 388.858C199.652 389.584 198.2 391.035 198.2 391.761C198.2 392.486 198.2 392.486 198.926 393.938C198.926 393.938 201.104 397.566 196.748 402.646C196.022 403.372 195.296 404.823 193.844 405.549C193.118 406.274 191.666 406.274 190.94 406.274C189.488 407 187.31 407 185.858 407C183.68 407 180.776 406.274 178.598 405.549C177.146 405.549 174.968 404.823 174.242 403.372C173.516 402.646 174.242 401.195 174.968 400.469C177.146 397.566 179.324 394.664 180.05 393.212C181.502 391.761 184.406 388.858 184.406 388.132C186.584 385.23 191.666 380.15 191.666 380.15C196.022 373.619 196.022 363.459 196.022 363.459C196.022 358.38 194.57 341.689 193.844 338.786C193.844 336.609 192.392 332.981 191.666 330.804C187.31 321.37 185.858 308.308 185.858 308.308C185.858 306.131 185.132 298.148 184.406 295.246C183.68 275.653 175.694 258.962 175.694 258.962C174.374 255.52 172.921 252.131 171.338 248.802C170.612 247.351 169.886 241.546 169.16 240.094C168.434 238.643 169.16 237.192 166.256 235.74C162.953 234.072 159.796 232.13 156.817 229.935C156.817 229.935 135.037 213.244 132.133 184.943C131.407 176.235 129.229 163.898 129.229 162.447C128.503 160.996 129.229 157.367 121.969 148.659C114.709 139.951 111.079 136.323 106.723 128.34C101.641 120.358 96.5589 109.473 94.3809 105.118C92.2028 100.764 92.2028 97.136 90.0248 94.959C87.8468 92.782 85.6688 90.6049 82.0387 89.8792C78.4087 89.1536 76.9567 89.1536 76.2307 89.8792C67.5186 98.5874 62.4366 97.136 55.1765 95.6847C52.9985 94.959 45.7384 102.941 38.4783 108.021C36.3003 109.473 34.1223 109.473 31.2183 111.65C31.2183 111.65 29.7663 113.101 28.3143 116.729C26.1362 121.083 25.4102 121.083 21.0542 124.712C19.6022 125.437 16.6982 126.889 12.3421 126.163C7.98607 125.437 5.08205 124.712 3.63003 122.535C2.90403 121.083 2.90403 120.358 2.17802 118.906C1.45201 117.455 0 116.729 0 116.004C2.17802 113.101 1.45201 110.924 1.45201 109.473C1.45201 106.57 2.17802 106.57 3.63003 103.667C4.35604 100.039 4.35604 97.8617 7.26007 92.782C13.0681 84.7995 18.8762 78.2684 18.8762 78.2684C26.8622 68.1089 26.8622 55.0468 26.8622 55.0468C26.1362 52.8697 26.8622 49.967 27.5882 47.79C28.3143 45.613 29.7663 44.8873 31.9443 43.4359C34.1223 41.9846 35.5743 39.0819 36.3003 38.3562C36.3003 38.3562 37.0263 36.9048 37.7523 32.5508C37.7523 32.5508 37.7523 30.3737 37.0263 28.1967C37.0263 28.1967 28.3143 18.7629 30.4923 8.60345C30.4923 6.42642 34.1223 4.97506 35.5743 8.60345C39.2044 16.5859 45.0124 22.3913 45.0124 22.3913C45.0124 22.3913 48.6424 20.94 52.9985 20.94C52.9985 20.94 52.9985 20.2143 52.2725 18.0372C52.2725 15.8602 50.8205 14.4089 50.8205 12.2318C50.8205 10.7805 50.8205 9.32912 51.5465 7.87777C52.2725 5.70074 50.8205 2.79803 50.8205 1.34668C50.8205 0.621002 52.2725 -0.830352 54.4505 0.621002C61.7106 7.15209 61.7106 13.6832 61.7106 13.6832V17.3116C61.7106 20.2143 60.9845 20.94 60.9845 20.94L71.1486 22.3913M153.187 393.212H149.557V402.646H147.379V393.212H143.749V391.761H153.187V393.212ZM167.708 402.646H166.256V393.212L162.625 402.646H161.899L158.269 393.212V402.646H156.817V391.761H159.721L162.625 399.743L166.256 391.761H169.16V402.646H167.708Z" fill="#243E90"/>
</svg>
