<svg width="737" height="285" viewBox="0 0 737 285" fill="none" xmlns="http://www.w3.org/2000/svg">
<g clip-path="url(#clip0_221_25)">
<path d="M18.7364 172.607C12.8946 153.721 10.931 148.902 0.818237 148.902V143.098C9.70369 143.689 18.5401 144.033 27.2782 144.033C36.0164 144.033 44.1164 143.689 52.4619 143.098V148.951C48.5346 149.689 43.9201 150.475 43.9201 155.836C44.5739 158.997 45.4098 162.117 46.4237 165.18L68.2201 238.951H68.6128L84.2728 187.311L77.2037 165.377C72.9328 152.344 69.7419 149.295 62.4764 148.951V143.098C71.2146 143.689 79.9037 144.033 88.5928 144.033C97.2819 144.033 105.971 143.689 114.66 143.098V148.951C111.273 148.951 103.271 149.492 103.271 155.049C103.897 158.798 104.733 162.509 105.775 166.164L124.626 238.902H125.018L141.856 180.869C144.634 172.531 146.719 163.977 148.091 155.295C148.091 150.131 140.973 149.197 137.438 149.197V143.098C143.28 143.689 149.318 144.033 155.16 144.033C160.736 144.021 166.308 143.709 171.851 143.098V148.557C163.162 149.885 161.738 152.59 160.511 155.984C158.4 161.934 152.166 180.279 142.396 213.721L122.367 281.885H109.751L88.2982 202.459H87.9055L65.2255 281.885H52.6092L18.7364 172.607Z" fill="#302E2C"/>
<path d="M168.66 218.098C168.66 208.607 171.704 195.131 183.387 195.131C195.071 195.131 196.396 207.672 196.936 218.098H168.66ZM220.598 226.213C220.598 203.443 208.718 186.869 187.56 186.869C161.002 186.869 149.122 210.574 149.122 236.049C149.122 260 160.658 282.918 185.449 282.918C206.951 282.918 218.291 267.82 223.985 248.492L219.567 246.967C217.053 251.089 213.537 254.505 209.348 256.896C205.158 259.287 200.432 260.575 195.611 260.639C178.675 260.639 169.396 242.393 168.66 225.869H220.598V226.213Z" fill="#302E2C"/>
<path d="M230.956 248.344C230.956 261.525 244.751 272.443 256.484 272.443C262.375 272.443 270.131 269.935 270.131 262.312C270.131 245.344 225.065 244.951 225.065 214.213C224.919 210.581 225.527 206.958 226.851 203.574C228.175 200.189 230.185 197.117 232.756 194.552C235.326 191.986 238.4 189.983 241.783 188.669C245.166 187.355 248.784 186.759 252.409 186.918C256.254 187.03 260.074 187.575 263.798 188.541C266.978 189.556 270.281 190.135 273.616 190.262C275.619 190.277 277.605 189.892 279.458 189.131C279.851 197.246 279.851 205.262 280.538 213.328H276.316C275.551 208.1 273.018 203.294 269.14 199.713C265.262 196.133 260.274 193.994 255.011 193.656C253.468 193.557 251.921 193.786 250.472 194.327C249.024 194.868 247.705 195.708 246.602 196.794C245.5 197.88 244.638 199.187 244.074 200.629C243.51 202.071 243.255 203.617 243.327 205.164C243.327 220.853 284.465 220.459 284.465 251.492C284.465 270.377 273.567 283.016 255.355 283.016C243.131 283.016 236.209 277.656 226.636 277.262C227.176 267.426 227.029 257.935 227.029 248.246L230.956 248.344Z" fill="#302E2C"/>
<path d="M327.076 214.951C327.076 211.115 329.58 211.115 332.82 211.115C350.885 211.115 358.2 225.869 358.2 243.721C358.2 261.574 352.702 272.738 336.895 272.738C330.464 272.738 327.076 271.803 327.076 264.524V214.951ZM297.622 261.279C297.622 272.147 296.198 274.065 285.202 275V280.852C297.278 279.869 308.422 279.918 313.38 279.918C323.198 279.918 335.569 280.852 342.491 280.852C370.178 280.852 389.52 269.147 389.52 242.393C389.52 213.82 370.178 208.41 347.645 206.492V206.098C373.075 202.606 382.991 192.672 382.991 174.869C382.991 149.246 362.078 143.049 342.393 143.049C334.636 143.049 326.831 143.984 317.013 143.984C307.195 143.984 297.376 143.983 285.055 143.049V148.902C296.738 149.885 297.475 152.934 297.475 163.656V261.279H297.622ZM327.076 155.59C327.076 151.213 329.924 151.213 333.655 151.213C349.069 151.213 352.947 164.787 352.947 179.098C352.947 194.393 347.105 203 333.311 203C328.893 203 327.125 203 327.125 199.164V155.59H327.076Z" fill="#302E2C"/>
<path d="M444.747 259.754C441.302 263.013 436.957 265.155 432.278 265.902C425.7 265.902 422.46 259.213 422.46 252.869C422.46 240.279 434.733 233.197 444.698 230.885V259.754H444.747ZM467.575 217.557C467.575 193.557 454.025 186.967 434.684 186.967C418.925 186.967 401.989 193.557 401.989 213.377C401.989 222.131 406.604 222.131 413.182 222.131C419.76 222.131 424.227 221 424.767 212.836C425.504 203.295 424.767 195.131 434.585 195.131C441.851 195.131 444.649 199.459 444.649 207.279V224.148C426.142 226.853 396.589 233.148 396.589 258.967C396.589 272.738 404.198 283.557 417.453 283.557C428.449 283.557 437.875 274.754 444.993 266.443C444.993 274.902 447.349 283.557 456.578 283.557C463.156 283.557 468.851 279.279 476.215 272.787V265.902C474.493 267.645 472.254 268.784 469.833 269.148C467.525 269.148 467.525 265.508 467.525 262.803V217.557H467.575Z" fill="#302E2C"/>
<path d="M510.627 266.246C510.627 274.852 515.536 274.852 519.856 275V280.852C512.669 280.062 505.436 279.75 498.207 279.918C491.321 279.727 484.43 280.039 477.589 280.852V275C482.056 275 486.818 275 486.818 266.246V214.311C486.818 203.984 486.327 202.459 477 202.459V196.459C486.529 194.892 495.714 191.681 504.147 186.967H509.056V203.984C517.402 195.377 526.827 186.77 537.627 186.967C556.085 186.967 562.173 199.41 562.173 217.361V266.541C562.173 275.098 567.082 275.098 571.402 275.295V281.148C564.214 280.357 556.982 280.045 549.753 280.213C542.899 280.02 536.041 280.332 529.233 281.148V275.049C533.651 275.049 538.413 275.049 538.413 266.295V218.098C538.413 203.344 529.576 202.262 525.011 202.262C519.741 202.451 514.718 204.548 510.873 208.164V266.246H510.627Z" fill="#302E2C"/>
<path d="M644.253 248.738C638.558 267.967 627.218 283.164 605.716 283.164C581.171 283.164 569.487 260.197 569.487 236.246C569.487 207.672 587.602 187.066 607.876 187.066C624.715 187.066 641.062 191.984 641.062 211.656C641.062 220.262 638.067 222.918 629.869 222.918C621.671 222.918 616.222 222.918 616.222 213.082C616.222 196.853 613.571 195.377 605.176 195.377C596.782 195.377 589.909 202.754 589.909 223.312C589.909 243.869 597.567 260.984 615.682 260.984C620.502 260.92 625.227 259.626 629.409 257.225C633.592 254.825 637.096 251.396 639.589 247.262L644.253 248.738Z" fill="#302E2C"/>
<path d="M714.354 238.902C714.354 251.541 712.391 267.918 698.056 267.918C681.414 267.918 673.805 242 673.805 225.574C673.805 213.721 678.027 196.557 692.214 196.557C708.905 196.459 714.354 225.623 714.354 238.902ZM737.182 234.918C737.182 206.492 722.209 187.016 695.258 187.016C669.878 187.016 651.076 208.951 651.076 235.262C651.027 263.492 666 283.164 693 283.164C720 283.164 737.182 263.836 737.182 234.82V234.918Z" fill="#302E2C"/>
<path d="M406.456 5.49192V51.7214L462.273 109.213L517.5 52.2624L573.365 109.902L628.887 51.6231V4.8034L573.022 61.41L517.844 2.83618L461.635 60.4755L406.456 5.49192Z" fill="#008B4C"/>
<path d="M406.456 61.164V107.344L462.273 164.885L517.5 107.935L573.365 165.525L628.887 107.246V60.4755L573.022 117.082L517.844 58.5083L461.635 116.098L406.456 61.164Z" fill="#008B4C"/>
<path d="M642.289 9.18045H643.32C644.596 9.18045 645.136 10.1641 645.136 11.787C645.136 13.41 644.645 14.6395 643.32 14.6395H642.289V9.18045ZM648.818 20.5903V20.246C648.084 19.4105 647.412 18.5229 646.805 17.5903L645.087 14.9345C645.772 14.7038 646.366 14.2596 646.781 13.6667C647.196 13.0738 647.411 12.3635 647.394 11.6395C647.411 11.2048 647.334 10.7717 647.169 10.3692C647.004 9.96677 646.755 9.60431 646.439 9.30618C646.123 9.00804 645.746 8.78114 645.336 8.6407C644.925 8.50026 644.488 8.44953 644.056 8.49192H638.362V9.18045C639.589 9.18045 639.638 9.67225 639.638 10.5575V18.6723C639.638 19.6067 639.638 19.9018 638.362 19.9509V20.6395H643.271V19.9509C641.896 19.9509 641.945 19.6067 641.945 18.6723V15.328H643.025C644.547 17.8854 645.382 20.6395 646.314 20.6395H648.818V20.5903ZM653.727 14.8362C653.9 13.3998 653.767 11.9429 653.337 10.5617C652.907 9.18058 652.189 7.90661 651.231 6.82393C650.273 5.74125 649.096 4.87449 647.779 4.2809C646.462 3.6873 645.034 3.38037 643.59 3.38037C642.146 3.38037 640.718 3.6873 639.401 4.2809C638.084 4.87449 636.907 5.74125 635.949 6.82393C634.991 7.90661 634.273 9.18058 633.843 10.5617C633.413 11.9429 633.279 13.3998 633.453 14.8362C633.356 16.2293 633.546 17.6275 634.012 18.9437C634.477 20.26 635.208 21.4662 636.159 22.4874C637.11 23.5086 638.26 24.3229 639.539 24.8796C640.817 25.4364 642.196 25.7237 643.59 25.7237C644.984 25.7237 646.363 25.4364 647.641 24.8796C648.92 24.3229 650.07 23.5086 651.021 22.4874C651.972 21.4662 652.702 20.26 653.168 18.9437C653.634 17.6275 653.824 16.2293 653.727 14.8362V14.8362ZM651.665 14.8362C651.847 16.0009 651.776 17.1914 651.455 18.3256C651.134 19.4599 650.572 20.5111 649.807 21.407C649.042 22.3028 648.092 23.022 647.023 23.5151C645.954 24.0082 644.791 24.2636 643.614 24.2636C642.438 24.2636 641.275 24.0082 640.206 23.5151C639.137 23.022 638.187 22.3028 637.422 21.407C636.657 20.5111 636.095 19.4599 635.774 18.3256C635.453 17.1914 635.381 16.0009 635.564 14.8362C635.336 13.648 635.373 12.4241 635.672 11.2519C635.971 10.0797 636.525 8.98818 637.294 8.05541C638.063 7.12265 639.029 6.37166 640.121 5.85614C641.214 5.34062 642.407 5.07331 643.614 5.07331C644.822 5.07331 646.015 5.34062 647.108 5.85614C648.2 6.37166 649.166 7.12265 649.935 8.05541C650.704 8.98818 651.258 10.0797 651.557 11.2519C651.856 12.4241 651.893 13.648 651.665 14.8362V14.8362Z" fill="#008B4C"/>
</g>
<defs>
<clipPath id="clip0_221_25">
<rect width="737" height="285" fill="white"/>
</clipPath>
</defs>
</svg>
